<svg width="725" height="678" viewBox="0 0 725 678" fill="none" xmlns="http://www.w3.org/2000/svg">
<g opacity="0.13">
<path d="M27.48 505.629L101.637 418.671V373.802L27.7761 309.373L63.4051 251.236L40.8556 164.773L170.873 173.608L171.177 115.36L255.693 98.1387L349.183 137.557L383.287 58.2968L619.317 27.5847L619.393 198.407L676.906 221.789L677.443 347.028L636.865 404.758L696.802 537.107L653.224 580.26H540.542L478.132 623.414L380.181 580.58L282.231 580.899L252.844 652.821H102.301L27.48 505.629Z" stroke="white" stroke-width="3.75978"/>
<path d="M2.77002 517.246L83.4662 423.747V376.997L2.77002 307.847L40.6875 245.514L15.4092 152.014L155.412 161.754V99.4211L245.831 80.9161L345.972 123.77L382.917 37.0883L638.617 3V187.077L700.84 211.425V345.831L657.089 408.164L722.23 551.334L675.562 598.084H554.032L488.891 644.834L382.917 598.084H276.942L245.831 676H83.4662L2.77002 517.246Z" stroke="white" stroke-width="3.75978"/>
<path d="M332.64 374.677L324.004 357.768V335.465L340.339 319.905L360.731 315.859L364.684 306.627L392.047 302.996V322.602L394.024 346.15L400.995 361.399L396.001 366.378H382.995H353.344L350.015 374.677H332.64Z" stroke="white" stroke-width="3.75978"/>
<path d="M52.1909 494.011L119.808 413.596V370.607L52.7831 310.898L86.1236 256.958L66.3029 177.532L186.336 185.462L186.944 131.299L265.557 115.361L352.396 151.343L383.658 79.5049L600.019 52.1691L600.171 209.738L652.974 232.152L654.046 348.225L616.642 401.352L671.376 522.879L630.888 562.436H527.054L467.374 601.994L377.447 563.075L287.52 563.713L259.858 629.642H121.137L52.1909 494.011Z" stroke="white" stroke-width="3.75978"/>
<path d="M76.9014 482.394L137.979 408.521V367.413L77.7897 312.425L108.842 262.681L91.7498 190.292L201.797 197.317L202.71 147.238L275.42 132.584L355.608 165.13L384.028 100.714L580.72 76.7543L580.948 221.069L629.04 242.516L630.649 349.423L596.418 397.946L645.95 508.652L608.551 544.613H513.566L456.615 580.575L374.712 545.571L292.809 546.528L266.872 606.464H139.972L76.9014 482.394Z" stroke="white" stroke-width="3.75978"/>
<path d="M101.611 470.777L156.149 403.446V364.218L102.795 313.951L131.559 268.403L117.196 203.051L217.258 209.171L218.475 163.177L285.282 149.807L358.82 178.916L384.397 121.922L561.42 101.339L561.724 232.4L605.106 252.879L607.251 350.621L576.194 394.54L620.522 494.425L586.213 526.79H500.076L445.855 559.155L371.976 528.067L298.097 529.343L273.885 583.285H158.806L101.611 470.777Z" stroke="white" stroke-width="3.75978"/>
<path d="M126.322 459.16L174.32 398.37V361.023L127.802 315.477L154.277 274.126L142.643 215.81L232.72 221.025L234.241 179.116L295.145 167.03L362.032 192.703L384.768 143.131L542.122 125.924L542.502 243.73L581.173 263.243L583.854 351.818L555.97 391.135L595.096 480.197L563.877 508.966H486.588L435.097 537.735L369.242 510.562L303.387 512.158L280.9 560.106H177.642L126.322 459.16Z" stroke="white" stroke-width="3.75978"/>
<path d="M151.032 447.542L192.491 393.295V357.828L152.809 317.002L176.995 279.848L168.09 228.568L248.182 232.879L250.007 195.054L305.008 184.252L365.245 206.489L385.138 164.339L522.823 150.508L523.279 255.06L557.24 273.605L560.457 353.015L535.747 387.728L569.67 465.969L541.54 491.142H473.099L424.338 516.315L366.507 493.057L308.675 494.972L287.913 536.927H196.477L151.032 447.542Z" stroke="white" stroke-width="3.75978"/>
<path d="M175.742 435.925L210.662 388.219V354.633L177.815 318.528L199.713 285.57L193.536 241.327L263.643 244.733L265.772 210.993L314.871 201.475L368.456 220.276L385.508 185.548L503.523 175.093L504.056 266.391L533.306 283.969L537.06 354.213L515.523 384.323L544.243 451.742L519.202 473.319H459.61L413.579 494.895L363.772 475.553L313.964 477.787L294.927 513.749H215.311L175.742 435.925Z" stroke="white" stroke-width="3.75978"/>
<path d="M200.453 424.308L228.833 383.144V351.439L202.822 320.055L222.431 291.293L218.983 254.087L279.105 256.588L281.538 226.932L324.734 218.698L371.669 234.063L385.878 206.757L484.224 199.678L484.833 277.722L509.373 294.333L513.663 355.411L495.299 380.917L518.816 437.515L496.866 455.496H446.121L402.82 473.476L361.037 458.049L319.253 460.603L301.941 490.57H234.147L200.453 424.308Z" stroke="white" stroke-width="3.75978"/>
<path d="M225.164 412.691L247.004 378.069V348.244L227.829 321.581L245.15 297.015L244.431 266.846L294.567 268.442L297.304 242.871L334.597 235.921L374.881 247.85L386.249 227.965L464.926 224.263L465.61 289.053L485.44 304.696L490.266 356.609L475.076 377.512L493.39 423.288L474.529 437.672H432.633L392.062 452.057L358.302 440.545L324.542 443.417L308.955 467.392H252.982L225.164 412.691Z" stroke="white" stroke-width="3.75978"/>
<path d="M249.874 401.074L265.174 372.994V345.049L252.835 323.107L267.867 302.738L269.877 279.605L310.028 280.297L313.07 258.81L344.46 253.143L378.093 261.636L386.619 249.174L445.627 248.848L446.387 300.384L461.506 315.06L466.869 357.806L454.851 374.106L467.963 409.06L452.192 419.849H419.144L381.303 430.637L355.567 423.04L329.831 426.232L315.968 444.213H271.817L249.874 401.074Z" stroke="white" stroke-width="3.75978"/>
<path d="M274.584 389.457L283.345 367.919V341.855L277.841 324.633L290.585 308.46L295.324 292.364L325.49 292.151L328.835 274.749L354.323 270.366L381.305 275.423L386.989 270.382L426.328 273.433L427.164 311.715L437.573 325.423L443.471 359.004L434.628 370.7L442.537 394.833L429.855 402.025H405.656L370.544 409.217L352.832 405.536L335.12 409.047L322.982 421.034H290.652L274.584 389.457Z" stroke="white" stroke-width="3.75978"/>
<path d="M299.295 377.839L301.517 362.843V338.659L302.848 326.159L313.304 314.182L320.771 305.123L340.952 304.005L344.602 290.688L364.186 287.588L384.518 289.209L387.36 291.59L407.029 298.017L407.942 323.045L413.64 335.786L420.075 360.201L414.405 367.294L417.11 380.605L407.518 384.201H392.167L359.786 387.797L350.097 388.031L340.409 391.861L329.997 397.855H309.488L299.295 377.839Z" stroke="white" stroke-width="3.75978"/>
</g>
</svg>
