<svg fill="none" stroke="currentColor" width="253" height="282" viewBox="0 0 253 282" xmlns="http://www.w3.org/2000/svg">
<path fill="none" stroke="currentColor" d="M98.5853 22.4389C106.571 -5.54438 146.229 -5.54438 154.215 22.4389L159.322 40.3352C163.965 56.6025 180.678 66.2515 197.087 62.1384L215.139 57.6133C243.366 50.5378 263.195 84.8824 242.954 105.79L230.009 119.161C218.242 131.316 218.242 150.614 230.009 162.768L242.954 176.139C263.195 197.047 243.366 231.391 215.139 224.316L197.087 219.791C180.678 215.678 163.965 225.327 159.322 241.594L154.215 259.49C146.229 287.474 106.571 287.474 98.5853 259.49L93.4779 241.594C88.8354 225.327 72.1228 215.678 55.7137 219.791L37.6614 224.316C9.4341 231.391 -10.3948 197.047 9.84643 176.139L22.7914 162.768C34.558 150.614 34.558 131.316 22.7914 119.161L9.84643 105.79C-10.3948 84.8824 9.4341 50.5378 37.6614 57.6133L55.7137 62.1384C72.1228 66.2515 88.8354 56.6025 93.4779 40.3352L98.5853 22.4389Z" stroke-width="2.42072"/>
</svg>
